# Blender 5.0.1
# www.blender.org
mtllib Tornado.mtl
o Cylinder
v -2.067521 0.935470 0.048833
v 1.987160 9.604259 7.863084
v -2.009711 0.935470 -0.487945
v 0.255534 9.604259 7.889752
v -1.814942 0.935470 -0.991469
v -1.423990 9.604259 7.467332
v -1.496488 0.935470 -1.427428
v -2.936956 9.604259 6.624613
v -1.076051 0.935470 -1.766109
v -4.180258 9.604259 5.419026
v -0.582283 0.935470 -1.984433
v -5.069165 9.604259 3.932727
v -0.048833 0.935470 -2.067521
v -5.543101 9.604259 2.267007
v 0.487945 0.935470 -2.009711
v -5.569768 9.604259 0.535380
v 0.991470 0.935470 -1.814942
v -5.147349 9.604259 -1.144145
v 1.427428 0.935470 -1.496488
v -4.304629 9.604259 -2.657110
v 1.766109 0.935470 -1.076051
v -3.099042 9.604259 -3.900412
v 1.984433 0.935470 -0.582283
v -1.612743 9.604259 -4.789320
v 2.067521 0.935470 -0.048833
v 0.052977 9.604259 -5.263256
v 2.009711 0.935470 0.487945
v 1.784604 9.604259 -5.289922
v 1.814942 0.935470 0.991470
v 3.464129 9.604259 -4.867502
v 1.496488 0.935470 1.427428
v 4.977094 9.604259 -4.024783
v 1.076051 0.935470 1.766109
v 6.220396 9.604259 -2.819196
v 0.582283 0.935470 1.984433
v 7.109303 9.604259 -1.332897
v 0.048833 0.935470 2.067521
v 7.583239 9.604259 0.332823
v -0.487945 0.935470 2.009711
v 7.609906 9.604259 2.064450
v -0.991470 0.935470 1.814942
v 7.187486 9.604259 3.743974
v -1.427428 0.935470 1.496488
v 6.344767 9.604259 5.256940
v -1.766109 0.935470 1.076051
v 5.139180 9.604259 6.500242
v -1.984433 0.935470 0.582283
v 3.652880 9.604259 7.389148
v -1.603239 1.390943 0.037867
v -1.218783 2.393489 -0.181410
v -1.291791 3.314846 -0.733688
v -1.962975 4.143841 -0.052038
v -2.709631 4.901429 1.010420
v -3.204630 5.743020 2.673924
v -1.529359 6.988372 6.254207
v -2.425723 6.988371 5.724255
v -3.562156 5.743019 2.159762
v -2.853371 4.901429 0.564107
v -1.962762 4.143841 -0.549450
v -1.262609 3.314846 -1.129512
v -1.182513 2.393489 -0.518184
v -1.558411 1.390943 -0.378372
v -3.261210 6.988371 4.867591
v -3.790525 5.743019 1.161844
v -2.799782 4.901429 -0.135408
v -1.883211 4.143841 -0.968067
v -1.127603 3.314846 -1.506298
v -1.060315 2.393489 -0.834094
v -1.407379 1.390943 -0.768826
v -3.973178 6.988371 3.528570
v -3.830163 5.743019 0.676697
v -2.659280 4.901429 -0.623844
v -1.636005 4.143841 -1.411559
v -0.908613 3.314846 -1.829066
v -0.860518 2.393489 -1.107614
v -1.160437 1.390943 -1.106885
v -4.104103 6.988371 2.639801
v -3.620925 5.743019 -0.250194
v -2.281884 4.901429 -1.222622
v -1.312470 4.143841 -1.753274
v -0.596445 3.314846 -2.091091
v -0.596736 2.393489 -1.320102
v -0.834413 1.390943 -1.369512
v -4.041571 6.988371 1.449505
v -3.087619 5.743019 -1.224245
v -1.725800 4.901429 -1.732017
v -0.849473 4.143841 -2.034901
v -0.231783 3.314846 -2.261588
v -0.286947 2.393489 -1.457078
v -0.451526 1.390943 -1.538809
v -3.607841 6.988371 0.109728
v -2.557930 5.743019 -1.711240
v -1.183519 4.901429 -1.989157
v -0.354661 4.143841 -2.176775
v 0.179609 3.314846 -2.335007
v 0.047738 2.393489 -1.509207
v -0.037867 1.390943 -1.603239
v -2.826112 6.988371 -0.941796
v -1.723084 5.743019 -2.219238
v -0.404154 4.901429 -2.183471
v 0.231077 4.143841 -2.202504
v 0.603896 3.314846 -2.300678
v 0.384512 2.393489 -1.472937
v 0.378372 1.390943 -1.558411
v -1.584719 6.988371 -1.864893
v -0.596171 5.743019 -2.558373
v 0.366888 4.901429 -2.146031
v 0.748594 4.143841 -2.069535
v 1.001871 3.314846 -2.158363
v 0.700423 2.393489 -1.350739
v 0.768825 1.390943 -1.407379
v -0.195193 6.988371 -2.237109
v 0.419351 5.743019 -2.500143
v 1.089436 4.901429 -1.895742
v 1.280849 4.143841 -1.801901
v 1.361153 3.314846 -1.917317
v 0.973942 2.393489 -1.150942
v 1.106885 1.390943 -1.160437
v 1.167531 6.988371 -2.098286
v 1.367160 5.743019 -2.146927
v 1.742120 4.901429 -1.444278
v 1.689267 4.143841 -1.410650
v 1.627883 3.314846 -1.596719
v 1.186430 2.393489 -0.887161
v 1.369512 1.390943 -0.834414
v 2.369410 6.988371 -1.509238
v 2.257409 5.743019 -1.485424
v 2.208060 4.901429 -0.831324
v 1.967849 4.143841 -0.930523
v 1.797512 3.314846 -1.220192
v 1.323406 2.393489 -0.577371
v 1.538809 1.390943 -0.451526
v 3.276581 6.988371 -0.557438
v 2.821882 5.743019 -0.598338
v 2.432443 4.901429 -0.138790
v 2.085599 4.143841 -0.408694
v 1.860749 3.314846 -0.814195
v 1.375535 2.393489 -0.242686
v 1.603239 1.390943 -0.037867
v 3.733709 6.988371 0.420097
v 3.023222 5.743019 0.384961
v 2.423208 4.901429 0.561403
v 2.040531 4.143841 0.107335
v 1.816751 3.314846 -0.405665
v 1.339265 2.393489 0.094088
v 1.558411 1.390943 0.378372
v 3.931695 6.988371 1.525638
v 2.870502 5.743019 1.330080
v 2.202245 4.901429 1.198963
v 1.855533 4.143841 0.585602
v 1.668516 3.314846 -0.022443
v 1.217068 2.393489 0.409998
v 1.407379 1.390943 0.768825
v 3.933767 6.988371 2.394054
v 2.434325 5.743019 2.120052
v 1.816130 4.901429 1.732319
v 1.553053 4.143841 0.999692
v 1.426148 3.314846 0.309356
v 1.017270 2.393489 0.683518
v 1.160437 1.390943 1.106885
v 3.773951 6.988371 3.287350
v 1.824045 5.743019 2.713367
v 1.305890 4.901429 2.143340
v 1.153706 4.143841 1.321383
v 1.106162 3.314846 0.567119
v 0.753489 2.393489 0.896006
v 0.834413 1.390943 1.369512
v 3.565931 6.988371 4.031618
v 1.143437 5.743019 3.123697
v 0.709960 4.901429 2.409225
v 0.684707 4.143841 1.528756
v 0.730366 3.314846 0.733280
v 0.443700 2.393489 1.032982
v 0.451526 1.390943 1.538809
v 3.160073 6.988371 4.788823
v 0.446606 5.743019 3.394646
v 0.082469 4.901429 2.527212
v 0.178016 4.143841 1.607676
v 0.324368 3.314846 0.796517
v 0.109014 2.393489 1.085111
v 0.037867 1.390943 1.603239
v 2.682845 6.988371 5.423382
v -0.244940 5.743019 3.552983
v -0.528579 4.901429 2.524027
v -0.331836 4.143841 1.552765
v -0.084162 3.314846 0.752519
v -0.227759 2.393489 1.048841
v -0.378372 1.390943 1.558411
v 2.132000 6.988371 5.941989
v -0.901401 5.743019 3.622677
v -1.111690 4.901429 2.401533
v -0.809996 4.143841 1.370584
v -0.467384 3.314846 0.604285
v -0.543670 2.393489 0.926644
v -0.768825 1.390943 1.407379
v 1.515104 6.988371 6.335164
v -1.525107 5.743019 3.603535
v -1.632784 4.901429 2.196845
v -1.227016 4.143841 1.094077
v -0.799183 3.314846 0.361916
v -0.817189 2.393489 0.726846
v -1.106885 1.390943 1.160437
v 0.335234 6.988371 6.548502
v -2.148458 5.743019 3.431846
v -2.079234 4.901429 1.933564
v -1.566809 4.143841 0.757604
v -1.056945 3.314846 0.041930
v -1.029678 2.393489 0.463065
v -1.369512 1.390943 0.834413
v -0.887494 6.988371 6.421958
v -2.761588 5.743019 3.030764
v -2.452868 4.901429 1.510527
v -1.808272 4.143841 0.346830
v -1.223068 3.314846 -0.333920
v -1.166654 2.393489 0.153275
v -1.538809 1.390943 0.451526
v -0.088164 4.800278 -0.845285
v -0.052485 4.770979 -0.855512
v -0.306324 5.143430 -0.804358
vn -0.7000 0.7139 0.0165
vn 0.0410 -0.5412 0.8399
vn -0.6804 0.7139 -0.1652
vn -0.2341 -0.4271 0.8734
vn -0.6145 0.7139 -0.3357
vn -0.4841 -0.3847 0.7859
vn -0.5067 0.7139 -0.4833
vn -0.6834 -0.3818 0.6223
vn -0.3643 0.7139 -0.5980
vn -0.7935 -0.4308 0.4299
vn -0.1971 0.7139 -0.6719
vn -0.8650 -0.4672 0.1830
vn -0.0165 0.7139 -0.7000
vn -0.8486 -0.5250 -0.0651
vn 0.1652 0.7139 -0.6804
vn -0.7558 -0.5870 -0.2902
vn 0.3357 0.7139 -0.6145
vn -0.6024 -0.6410 -0.4757
vn 0.4833 0.7139 -0.5067
vn -0.4107 -0.6894 -0.5967
vn 0.5980 0.7139 -0.3643
vn -0.2056 -0.7316 -0.6500
vn 0.6719 0.7139 -0.1971
vn -0.0064 -0.7654 -0.6435
vn 0.7000 0.7139 -0.0165
vn 0.1555 -0.7968 -0.5839
vn 0.6804 0.7139 0.1652
vn 0.2727 -0.8267 -0.4921
vn 0.6145 0.7139 0.3357
vn 0.3605 -0.8443 -0.3964
vn 0.5067 0.7139 0.4833
vn 0.4050 -0.8636 -0.3003
vn 0.3643 0.7139 0.5980
vn 0.4612 -0.8634 -0.2043
vn 0.1971 0.7139 0.6719
vn 0.4972 -0.8613 -0.1045
vn 0.0165 0.7139 0.7000
vn 0.5412 -0.8406 0.0208
vn -0.1652 0.7139 0.6804
vn 0.5528 -0.8207 0.1445
vn -0.3357 0.7139 0.6145
vn 0.5486 -0.7849 0.2880
vn -0.4833 0.7139 0.5067
vn 0.5044 -0.7194 0.4775
vn -0.5980 0.7139 0.3643
vn 0.3691 -0.6001 0.7097
vn -0.6719 0.7139 0.1971
vn 0.1993 -0.5525 0.8093
vn -0.8283 0.5597 0.0265
vn -0.9844 0.1703 0.0438
vn -0.9180 -0.3958 0.0236
vn -0.6528 -0.7462 0.1301
vn -0.5078 -0.8289 0.2347
vn -0.3843 -0.8434 0.3755
vn -0.1840 -0.6963 0.6937
vn -0.4097 -0.6207 0.6686
vn -0.5822 -0.7545 0.3029
vn -0.6194 -0.7807 0.0825
vn -0.7323 -0.6781 -0.0623
vn -0.8784 -0.4301 -0.2083
vn -0.9751 0.0616 -0.2130
vn -0.8200 0.5395 -0.1911
vn -0.6482 -0.5233 0.5532
vn -0.6810 -0.7128 0.1678
vn -0.6827 -0.7256 -0.0868
vn -0.7628 -0.5875 -0.2701
vn -0.7926 -0.4313 -0.4310
vn -0.8860 -0.0501 -0.4609
vn -0.7549 0.5173 -0.4031
vn -0.7637 -0.5037 0.4037
vn -0.8672 -0.4947 -0.0567
vn -0.7107 -0.6415 -0.2889
vn -0.7351 -0.4449 -0.5116
vn -0.6617 -0.4062 -0.6302
vn -0.7271 -0.1490 -0.6701
vn -0.6343 0.4946 -0.5941
vn -0.9456 -0.2969 0.1328
vn -0.8918 -0.3441 -0.2938
vn -0.6725 -0.5391 -0.5071
vn -0.6196 -0.2784 -0.7339
vn -0.4878 -0.3643 -0.7933
vn -0.5161 -0.2282 -0.8255
vn -0.4643 0.4733 -0.7486
vn -0.9648 -0.2391 -0.1100
vn -0.8158 -0.2520 -0.5205
vn -0.5410 -0.3901 -0.7451
vn -0.4122 -0.0957 -0.9061
vn -0.2769 -0.3194 -0.9062
vn -0.2778 -0.2848 -0.9175
vn -0.2559 0.4553 -0.8527
vn -0.9069 -0.2210 -0.3587
vn -0.6432 -0.1196 -0.7563
vn -0.3559 -0.2783 -0.8921
vn -0.1816 0.0286 -0.9830
vn -0.0489 -0.2865 -0.9568
vn -0.0291 -0.3208 -0.9467
vn -0.0246 0.4424 -0.8965
vn -0.7561 -0.1895 -0.6264
vn -0.4409 -0.0852 -0.8935
vn -0.1358 -0.2269 -0.9644
vn 0.0815 0.1065 -0.9910
vn 0.1935 -0.2647 -0.9447
vn 0.2166 -0.3383 -0.9158
vn 0.2113 0.4359 -0.8749
vn -0.5199 -0.2225 -0.8248
vn -0.1534 -0.0699 -0.9857
vn 0.1594 -0.1860 -0.9695
vn 0.3349 0.1281 -0.9335
vn 0.4151 -0.2580 -0.8725
vn 0.4461 -0.3382 -0.8286
vn 0.4326 0.4363 -0.7890
vn -0.1943 -0.2748 -0.9416
vn 0.1664 -0.0855 -0.9824
vn 0.4277 -0.1910 -0.8835
vn 0.5712 0.0915 -0.8157
vn 0.6152 -0.2670 -0.7418
vn 0.6520 -0.3198 -0.6875
vn 0.6213 0.4436 -0.6459
vn 0.1360 -0.3734 -0.9177
vn 0.4439 -0.1489 -0.8836
vn 0.6599 -0.2487 -0.7090
vn 0.7804 -0.0046 -0.6253
vn 0.7827 -0.2900 -0.5507
vn 0.8216 -0.2798 -0.4967
vn 0.7625 0.4572 -0.4579
vn 0.4119 -0.4885 -0.7692
vn 0.6851 -0.2545 -0.6825
vn 0.8235 -0.3499 -0.4466
vn 0.9171 -0.1504 -0.3693
vn 0.8899 -0.3211 -0.3239
vn 0.9389 -0.2173 -0.2671
vn 0.8461 0.4756 -0.2408
vn 0.5702 -0.6214 -0.5374
vn 0.8363 -0.3888 -0.3866
vn 0.8762 -0.4589 -0.1473
vn 0.9474 -0.3104 -0.0775
vn 0.9336 -0.3510 -0.0728
vn 0.9910 -0.1335 -0.0116
vn 0.8676 0.4972 -0.0125
vn 0.6236 -0.7156 -0.3147
vn 0.8459 -0.5286 -0.0710
vn 0.8233 -0.5529 0.1285
vn 0.8733 -0.4491 0.1888
vn 0.9143 -0.3638 0.1782
vn 0.9678 -0.0325 0.2497
vn 0.8282 0.5199 0.2095
vn 0.5810 -0.8018 -0.1401
vn 0.7443 -0.6423 0.1833
vn 0.7029 -0.6199 0.3487
vn 0.7339 -0.5528 0.3947
vn 0.8389 -0.3541 0.4133
vn 0.8675 0.0767 0.4914
vn 0.7338 0.5419 0.4097
vn 0.5335 -0.8456 -0.0183
vn 0.5903 -0.7252 0.3545
vn 0.5501 -0.6645 0.5059
vn 0.5647 -0.6258 0.5381
vn 0.7088 -0.3290 0.6240
vn 0.7014 0.1816 0.6893
vn 0.5938 0.5619 0.5759
vn 0.4769 -0.8768 0.0618
vn 0.4392 -0.7798 0.4462
vn 0.3856 -0.6972 0.6043
vn 0.3831 -0.6771 0.6283
vn 0.5247 -0.2977 0.7975
vn 0.4903 0.2707 0.8284
vn 0.4196 0.5786 0.6994
vn 0.4494 -0.8836 0.1318
vn 0.3056 -0.8182 0.4870
vn 0.2249 -0.7272 0.6486
vn 0.2004 -0.7130 0.6719
vn 0.2958 -0.2682 0.9168
vn 0.2563 0.3379 0.9056
vn 0.2231 0.5914 0.7749
vn 0.4169 -0.8859 0.2032
vn 0.1958 -0.8475 0.4934
vn 0.0828 -0.7586 0.6462
vn 0.0277 -0.7385 0.6736
vn 0.0390 -0.2464 0.9684
vn 0.0164 0.3816 0.9242
vn 0.0164 0.6000 0.7998
vn 0.3878 -0.8790 0.2774
vn 0.1060 -0.8709 0.4799
vn -0.0394 -0.7910 0.6106
vn -0.1315 -0.7579 0.6390
vn -0.2238 -0.2355 0.9458
vn -0.2176 0.4024 0.8892
vn -0.1888 0.6042 0.7742
vn 0.3518 -0.8620 0.3650
vn 0.0303 -0.8886 0.4578
vn -0.1405 -0.8204 0.5542
vn -0.2685 -0.7714 0.5770
vn -0.4657 -0.2387 0.8521
vn -0.4373 0.4012 0.8049
vn -0.3813 0.6039 0.6999
vn 0.2774 -0.8064 0.5222
vn -0.0535 -0.8926 0.4476
vn -0.2264 -0.8405 0.4922
vn -0.3766 -0.7818 0.4970
vn -0.6651 -0.2612 0.6996
vn -0.6348 0.3778 0.6740
vn -0.5506 0.5992 0.5811
vn 0.1269 -0.7660 0.6302
vn -0.1717 -0.8804 0.4421
vn -0.3358 -0.8432 0.4198
vn -0.4834 -0.7836 0.3901
vn -0.8157 -0.3003 0.4944
vn -0.8007 0.3314 0.4990
vn -0.6872 0.5901 0.4237
vn -0.0055 -0.7582 0.6520
vn -0.2817 -0.8682 0.4084
vn -0.4315 -0.8388 0.3321
vn -0.5772 -0.7696 0.2731
vn -0.8957 -0.3528 0.2706
vn -0.9220 0.2617 0.2853
vn -0.7822 0.5768 0.2355
vt 1.000000 0.781509
vt 1.000000 1.000000
vt 0.958333 1.000000
vt 0.958333 0.781509
vt 0.916667 1.000000
vt 0.916667 0.781509
vt 0.875000 1.000000
vt 0.875000 0.781509
vt 0.833333 1.000000
vt 0.833333 0.781509
vt 0.791667 1.000000
vt 0.791667 0.781509
vt 0.750000 1.000000
vt 0.750000 0.781509
vt 0.708333 1.000000
vt 0.708333 0.781509
vt 0.666667 1.000000
vt 0.666667 0.781509
vt 0.625000 1.000000
vt 0.625000 0.781509
vt 0.583333 1.000000
vt 0.583333 0.781509
vt 0.541666 1.000000
vt 0.541666 0.781509
vt 0.500000 1.000000
vt 0.500000 0.781509
vt 0.458333 1.000000
vt 0.458333 0.781509
vt 0.416666 1.000000
vt 0.416667 0.781509
vt 0.375000 1.000000
vt 0.375000 0.781509
vt 0.333333 1.000000
vt 0.333333 0.781509
vt 0.291667 1.000000
vt 0.291667 0.781509
vt 0.250000 1.000000
vt 0.250000 0.781509
vt 0.208333 1.000000
vt 0.208333 0.781509
vt 0.166666 1.000000
vt 0.166666 0.781509
vt 0.125000 1.000000
vt 0.125000 0.781509
vt 0.083333 1.000000
vt 0.083333 0.781509
vt 0.041666 1.000000
vt 0.041666 0.781509
vt -0.000000 1.000000
vt -0.000000 0.781509
vt 0.041666 0.000000
vt 0.041666 0.031509
vt -0.000000 0.031509
vt -0.000000 0.000000
vt 0.041666 0.156509
vt -0.000000 0.156509
vt 0.041666 0.281509
vt -0.000000 0.281509
vt 0.041666 0.406509
vt -0.000000 0.406509
vt 0.041666 0.531509
vt -0.000000 0.531509
vt 0.041666 0.656509
vt -0.000000 0.656509
vt 0.083333 0.000000
vt 0.083333 0.031509
vt 0.083333 0.156509
vt 0.083333 0.281509
vt 0.083333 0.406509
vt 0.083333 0.531509
vt 0.083333 0.656509
vt 0.125000 0.000000
vt 0.125000 0.031509
vt 0.125000 0.156509
vt 0.125000 0.281509
vt 0.125000 0.406509
vt 0.125000 0.531509
vt 0.125000 0.656509
vt 0.166666 0.000000
vt 0.166667 0.031509
vt 0.166666 0.156509
vt 0.166666 0.281509
vt 0.166666 0.406509
vt 0.166667 0.531509
vt 0.166667 0.656509
vt 0.208333 0.000000
vt 0.208333 0.031509
vt 0.208333 0.156509
vt 0.208333 0.281509
vt 0.208333 0.406509
vt 0.208333 0.531509
vt 0.208333 0.656509
vt 0.250000 0.000000
vt 0.250000 0.031509
vt 0.250000 0.156509
vt 0.250000 0.281509
vt 0.250000 0.406509
vt 0.250000 0.531509
vt 0.250000 0.656509
vt 0.291667 0.000000
vt 0.291667 0.031509
vt 0.291667 0.156509
vt 0.291667 0.281509
vt 0.291667 0.406509
vt 0.291667 0.531509
vt 0.291667 0.656509
vt 0.333333 0.000000
vt 0.333333 0.031509
vt 0.333333 0.156509
vt 0.333333 0.281509
vt 0.333333 0.406509
vt 0.333333 0.531509
vt 0.333333 0.656509
vt 0.375000 0.000000
vt 0.375000 0.031509
vt 0.375000 0.156509
vt 0.375000 0.281509
vt 0.375000 0.406509
vt 0.375000 0.531509
vt 0.375000 0.656509
vt 0.416666 0.000000
vt 0.416666 0.031509
vt 0.416666 0.156509
vt 0.416667 0.281509
vt 0.416667 0.406509
vt 0.416667 0.531509
vt 0.416666 0.656509
vt 0.458333 0.000000
vt 0.458333 0.031509
vt 0.458333 0.156509
vt 0.458333 0.281509
vt 0.458333 0.406509
vt 0.458333 0.531509
vt 0.458333 0.656509
vt 0.500000 0.000000
vt 0.500000 0.031509
vt 0.500000 0.156509
vt 0.500000 0.281509
vt 0.500000 0.406509
vt 0.500000 0.531509
vt 0.500000 0.656509
vt 0.541666 0.000000
vt 0.541666 0.031509
vt 0.541666 0.156509
vt 0.541666 0.281509
vt 0.541666 0.406509
vt 0.541666 0.531509
vt 0.541666 0.656509
vt 0.583333 0.000000
vt 0.583333 0.031509
vt 0.583333 0.156509
vt 0.583333 0.281509
vt 0.583333 0.406509
vt 0.583333 0.531509
vt 0.583333 0.656509
vt 0.625000 0.000000
vt 0.625000 0.031509
vt 0.625000 0.156509
vt 0.625000 0.281509
vt 0.625000 0.406509
vt 0.625000 0.531509
vt 0.625000 0.656509
vt 0.666667 0.000000
vt 0.666667 0.031509
vt 0.666667 0.156509
vt 0.666667 0.281509
vt 0.666667 0.406509
vt 0.666667 0.531509
vt 0.666667 0.656509
vt 0.708333 0.000000
vt 0.708333 0.031509
vt 0.708333 0.156509
vt 0.708333 0.281509
vt 0.708333 0.406509
vt 0.708333 0.531509
vt 0.708333 0.656509
vt 0.750000 0.000000
vt 0.750000 0.031509
vt 0.750000 0.156509
vt 0.750000 0.281509
vt 0.750000 0.406509
vt 0.750000 0.531509
vt 0.750000 0.656509
vt 0.791667 0.000000
vt 0.791667 0.031509
vt 0.791667 0.156509
vt 0.791667 0.281509
vt 0.791667 0.406509
vt 0.791667 0.531509
vt 0.791667 0.656509
vt 0.833333 0.000000
vt 0.833333 0.031509
vt 0.833333 0.156509
vt 0.833333 0.281509
vt 0.833333 0.406509
vt 0.833333 0.531509
vt 0.833333 0.656509
vt 0.875000 0.000000
vt 0.875000 0.031509
vt 0.875000 0.156509
vt 0.875000 0.281509
vt 0.875000 0.406509
vt 0.875000 0.531509
vt 0.875000 0.656509
vt 0.916667 0.000000
vt 0.916667 0.031509
vt 0.916667 0.156509
vt 0.916667 0.281509
vt 0.916667 0.406509
vt 0.916667 0.531509
vt 0.916667 0.656509
vt 0.958333 0.000000
vt 0.958333 0.031509
vt 0.958333 0.156509
vt 0.958333 0.281509
vt 0.958333 0.406509
vt 0.958333 0.531509
vt 0.958333 0.656509
vt 1.000000 0.000000
vt 1.000000 0.031509
vt 1.000000 0.156509
vt 1.000000 0.281509
vt 1.000000 0.406509
vt 1.000000 0.531509
vt 1.000000 0.656509
s 1
f 55/1/55 2/2/2 4/3/4 56/4/56
f 56/4/56 4/3/4 6/5/6 63/6/63
f 63/6/63 6/5/6 8/7/8 70/8/70
f 70/8/70 8/7/8 10/9/10 77/10/77
f 77/10/77 10/9/10 12/11/12 84/12/84
f 84/12/84 12/11/12 14/13/14 91/14/91
f 91/14/91 14/13/14 16/15/16 98/16/98
f 98/16/98 16/15/16 18/17/18 105/18/105
f 105/18/105 18/17/18 20/19/20 112/20/112
f 112/20/112 20/19/20 22/21/22 119/22/119
f 119/22/119 22/21/22 24/23/24 126/24/126
f 126/24/126 24/23/24 26/25/26 133/26/133
f 133/26/133 26/25/26 28/27/28 140/28/140
f 140/28/140 28/27/28 30/29/30 147/30/147
f 147/30/147 30/29/30 32/31/32 154/32/154
f 154/32/154 32/31/32 34/33/34 161/34/161
f 161/34/161 34/33/34 36/35/36 168/36/168
f 168/36/168 36/35/36 38/37/38 175/38/175
f 175/38/175 38/37/38 40/39/40 182/40/182
f 182/40/182 40/39/40 42/41/42 189/42/189
f 189/42/189 42/41/42 44/43/44 196/44/196
f 196/44/196 44/43/44 46/45/46 203/46/203
f 203/46/203 46/45/46 48/47/48 210/48/210
f 210/48/210 48/47/48 2/49/2 55/50/55
f 47/51/47 216/52/216 49/53/49 1/54/1
f 216/52/216 215/55/215 50/56/50 49/53/49
f 215/55/215 214/57/214 51/58/51 50/56/50
f 214/57/214 213/59/213 52/60/52 51/58/51
f 213/59/213 212/61/212 53/62/53 52/60/52
f 212/61/212 211/63/211 54/64/54 53/62/53
f 211/63/211 210/48/210 55/50/55 54/64/54
f 45/65/45 209/66/209 216/52/216 47/51/47
f 209/66/209 208/67/208 215/55/215 216/52/216
f 208/67/208 207/68/207 214/57/214 215/55/215
f 207/68/207 206/69/206 213/59/213 214/57/214
f 206/69/206 205/70/205 212/61/212 213/59/213
f 205/70/205 204/71/204 211/63/211 212/61/212
f 204/71/204 203/46/203 210/48/210 211/63/211
f 43/72/43 202/73/202 209/66/209 45/65/45
f 202/73/202 201/74/201 208/67/208 209/66/209
f 201/74/201 200/75/200 207/68/207 208/67/208
f 200/75/200 199/76/199 206/69/206 207/68/207
f 199/76/199 198/77/198 205/70/205 206/69/206
f 198/77/198 197/78/197 204/71/204 205/70/205
f 197/78/197 196/44/196 203/46/203 204/71/204
f 41/79/41 195/80/195 202/73/202 43/72/43
f 195/80/195 194/81/194 201/74/201 202/73/202
f 194/81/194 193/82/193 200/75/200 201/74/201
f 193/82/193 192/83/192 199/76/199 200/75/200
f 192/83/192 191/84/191 198/77/198 199/76/199
f 191/84/191 190/85/190 197/78/197 198/77/198
f 190/85/190 189/42/189 196/44/196 197/78/197
f 39/86/39 188/87/188 195/80/195 41/79/41
f 188/87/188 187/88/187 194/81/194 195/80/195
f 187/88/187 186/89/186 193/82/193 194/81/194
f 186/89/186 185/90/185 192/83/192 193/82/193
f 185/90/185 184/91/184 191/84/191 192/83/192
f 184/91/184 183/92/183 190/85/190 191/84/191
f 183/92/183 182/40/182 189/42/189 190/85/190
f 37/93/37 181/94/181 188/87/188 39/86/39
f 181/94/181 180/95/180 187/88/187 188/87/188
f 180/95/180 179/96/179 186/89/186 187/88/187
f 179/96/179 178/97/178 185/90/185 186/89/186
f 178/97/178 177/98/177 184/91/184 185/90/185
f 177/98/177 176/99/176 183/92/183 184/91/184
f 176/99/176 175/38/175 182/40/182 183/92/183
f 35/100/35 174/101/174 181/94/181 37/93/37
f 174/101/174 173/102/173 180/95/180 181/94/181
f 173/102/173 172/103/172 179/96/179 180/95/180
f 172/103/172 171/104/171 178/97/178 179/96/179
f 171/104/171 170/105/170 177/98/177 178/97/178
f 170/105/170 169/106/169 176/99/176 177/98/177
f 169/106/169 168/36/168 175/38/175 176/99/176
f 33/107/33 167/108/167 174/101/174 35/100/35
f 167/108/167 166/109/166 173/102/173 174/101/174
f 166/109/166 165/110/165 172/103/172 173/102/173
f 165/110/165 164/111/164 171/104/171 172/103/172
f 164/111/164 163/112/163 170/105/170 171/104/171
f 163/112/163 162/113/162 169/106/169 170/105/170
f 162/113/162 161/34/161 168/36/168 169/106/169
f 31/114/31 160/115/160 167/108/167 33/107/33
f 160/115/160 159/116/159 166/109/166 167/108/167
f 159/116/159 158/117/158 165/110/165 166/109/166
f 158/117/158 157/118/157 164/111/164 165/110/165
f 157/118/157 156/119/156 163/112/163 164/111/164
f 156/119/156 155/120/155 162/113/162 163/112/163
f 155/120/155 154/32/154 161/34/161 162/113/162
f 29/121/29 153/122/153 160/115/160 31/114/31
f 153/122/153 152/123/152 159/116/159 160/115/160
f 152/123/152 151/124/151 158/117/158 159/116/159
f 151/124/151 150/125/150 157/118/157 158/117/158
f 150/125/150 149/126/149 156/119/156 157/118/157
f 149/126/149 148/127/148 155/120/155 156/119/156
f 148/127/148 147/30/147 154/32/154 155/120/155
f 27/128/27 146/129/146 153/122/153 29/121/29
f 146/129/146 145/130/145 152/123/152 153/122/153
f 145/130/145 144/131/144 151/124/151 152/123/152
f 144/131/144 143/132/143 150/125/150 151/124/151
f 143/132/143 142/133/142 149/126/149 150/125/150
f 142/133/142 141/134/141 148/127/148 149/126/149
f 141/134/141 140/28/140 147/30/147 148/127/148
f 25/135/25 139/136/139 146/129/146 27/128/27
f 139/136/139 138/137/138 145/130/145 146/129/146
f 138/137/138 137/138/137 144/131/144 145/130/145
f 137/138/137 136/139/136 143/132/143 144/131/144
f 136/139/136 135/140/135 142/133/142 143/132/143
f 135/140/135 134/141/134 141/134/141 142/133/142
f 134/141/134 133/26/133 140/28/140 141/134/141
f 23/142/23 132/143/132 139/136/139 25/135/25
f 132/143/132 131/144/131 138/137/138 139/136/139
f 131/144/131 130/145/130 137/138/137 138/137/138
f 130/145/130 129/146/129 136/139/136 137/138/137
f 129/146/129 128/147/128 135/140/135 136/139/136
f 128/147/128 127/148/127 134/141/134 135/140/135
f 127/148/127 126/24/126 133/26/133 134/141/134
f 21/149/21 125/150/125 132/143/132 23/142/23
f 125/150/125 124/151/124 131/144/131 132/143/132
f 124/151/124 123/152/123 130/145/130 131/144/131
f 123/152/123 122/153/122 129/146/129 130/145/130
f 122/153/122 121/154/121 128/147/128 129/146/129
f 121/154/121 120/155/120 127/148/127 128/147/128
f 120/155/120 119/22/119 126/24/126 127/148/127
f 19/156/19 118/157/118 125/150/125 21/149/21
f 118/157/118 117/158/117 124/151/124 125/150/125
f 117/158/117 116/159/116 123/152/123 124/151/124
f 116/159/116 115/160/115 122/153/122 123/152/123
f 115/160/115 114/161/114 121/154/121 122/153/122
f 114/161/114 113/162/113 120/155/120 121/154/121
f 113/162/113 112/20/112 119/22/119 120/155/120
f 17/163/17 111/164/111 118/157/118 19/156/19
f 111/164/111 110/165/110 117/158/117 118/157/118
f 110/165/110 109/166/109 116/159/116 117/158/117
f 109/166/109 108/167/108 115/160/115 116/159/116
f 108/167/108 107/168/107 114/161/114 115/160/115
f 107/168/107 106/169/106 113/162/113 114/161/114
f 106/169/106 105/18/105 112/20/112 113/162/113
f 15/170/15 104/171/104 111/164/111 17/163/17
f 104/171/104 103/172/103 110/165/110 111/164/111
f 103/172/103 102/173/102 109/166/109 110/165/110
f 102/173/102 101/174/101 108/167/108 109/166/109
f 101/174/101 100/175/100 107/168/107 108/167/108
f 100/175/100 99/176/99 106/169/106 107/168/107
f 99/176/99 98/16/98 105/18/105 106/169/106
f 13/177/13 97/178/97 104/171/104 15/170/15
f 97/178/97 96/179/96 103/172/103 104/171/104
f 96/179/96 95/180/95 102/173/102 103/172/103
f 95/180/95 94/181/94 101/174/101 102/173/102
f 94/181/94 93/182/93 100/175/100 101/174/101
f 93/182/93 92/183/92 99/176/99 100/175/100
f 92/183/92 91/14/91 98/16/98 99/176/99
f 11/184/11 90/185/90 97/178/97 13/177/13
f 90/185/90 89/186/89 96/179/96 97/178/97
f 89/186/89 88/187/88 95/180/95 96/179/96
f 88/187/88 87/188/87 94/181/94 95/180/95
f 87/188/87 86/189/86 93/182/93 94/181/94
f 86/189/86 85/190/85 92/183/92 93/182/93
f 85/190/85 84/12/84 91/14/91 92/183/92
f 9/191/9 83/192/83 90/185/90 11/184/11
f 83/192/83 82/193/82 89/186/89 90/185/90
f 82/193/82 81/194/81 88/187/88 89/186/89
f 81/194/81 80/195/80 87/188/87 88/187/88
f 80/195/80 79/196/79 86/189/86 87/188/87
f 79/196/79 78/197/78 85/190/85 86/189/86
f 78/197/78 77/10/77 84/12/84 85/190/85
f 7/198/7 76/199/76 83/192/83 9/191/9
f 76/199/76 75/200/75 82/193/82 83/192/83
f 75/200/75 74/201/74 81/194/81 82/193/82
f 74/201/74 73/202/73 80/195/80 81/194/81
f 73/202/73 72/203/72 79/196/79 80/195/80
f 72/203/72 71/204/71 78/197/78 79/196/79
f 71/204/71 70/8/70 77/10/77 78/197/78
f 5/205/5 69/206/69 76/199/76 7/198/7
f 69/206/69 68/207/68 75/200/75 76/199/76
f 68/207/68 67/208/67 74/201/74 75/200/75
f 67/208/67 66/209/66 73/202/73 74/201/74
f 66/209/66 65/210/65 72/203/72 73/202/73
f 65/210/65 64/211/64 71/204/71 72/203/72
f 64/211/64 63/6/63 70/8/70 71/204/71
f 3/212/3 62/213/62 69/206/69 5/205/5
f 62/213/62 61/214/61 68/207/68 69/206/69
f 61/214/61 60/215/60 67/208/67 68/207/68
f 60/215/60 59/216/59 66/209/66 67/208/67
f 59/216/59 58/217/58 65/210/65 66/209/66
f 58/217/58 57/218/57 64/211/64 65/210/65
f 57/218/57 56/4/56 63/6/63 64/211/64
f 1/219/1 49/220/49 62/213/62 3/212/3
f 49/220/49 50/221/50 61/214/61 62/213/62
f 50/221/50 51/222/51 60/215/60 61/214/61
f 51/222/51 52/223/52 59/216/59 60/215/60
f 52/223/52 53/224/53 58/217/58 59/216/59
f 53/224/53 54/225/54 57/218/57 58/217/58
f 54/225/54 55/1/55 56/4/56 57/218/57
l 218 219
